<?xml version="1.0" ?><svg id="OBJECT" viewBox="0 0 512 512" xmlns="http://www.w3.org/2000/svg"><defs><style>.cls-1{fill:#bddbff;}.cls-2{fill:#3d9ae2;}.cls-3{fill:#fff;}</style></defs><title/><path class="cls-1" d="M166,241,96.7,294A40,40,0,0,0,81,325.77V431l40.54-83.72a20,20,0,0,1,18-11.28H166Z"/><path class="cls-2" d="M81,438.5a7.5,7.5,0,0,1-7.5-7.5V325.77A47.79,47.79,0,0,1,92.15,288l69.29-53a7.51,7.51,0,0,1,12.06,6v95a7.5,7.5,0,0,1-7.5,7.5H139.54a12.57,12.57,0,0,0-11.25,7.05L87.75,434.27A7.49,7.49,0,0,1,81,438.5Zm77.5-182.32L101.26,300A32.69,32.69,0,0,0,88.5,325.77V398.3L114.79,344a27.64,27.64,0,0,1,24.75-15.52h19Z"/><path class="cls-1" d="M346,241l69.3,53A40,40,0,0,1,431,325.77V431l-40.54-83.72a20,20,0,0,0-18-11.28H346Z"/><path class="cls-2" d="M431,438.5a7.49,7.49,0,0,1-6.75-4.23l-40.54-83.72a12.57,12.57,0,0,0-11.25-7.05H346a7.5,7.5,0,0,1-7.5-7.5V241a7.51,7.51,0,0,1,12.06-6l69.29,53a47.79,47.79,0,0,1,18.65,37.74V431a7.5,7.5,0,0,1-7.5,7.5Zm-77.5-110h19A27.64,27.64,0,0,1,397.21,344L423.5,398.3V325.77A32.69,32.69,0,0,0,410.74,300L353.5,256.18Z"/><path class="cls-3" d="M346,407.5H166V120a80,80,0,0,1,28.79-61.46L256,7.5l61.21,51A80,80,0,0,1,346,120Z"/><path class="cls-2" d="M346,415H166a7.5,7.5,0,0,1-7.5-7.5V120A87.28,87.28,0,0,1,190,52.75l61.22-51a7.49,7.49,0,0,1,9.6,0l61.22,51A87.28,87.28,0,0,1,353.5,120V407.5A7.5,7.5,0,0,1,346,415ZM173.5,400h165V120a72.32,72.32,0,0,0-26.09-55.7L256,17.26l-56.41,47A72.32,72.32,0,0,0,173.5,120Z"/><polygon class="cls-3" points="321 447.5 191 447.5 211 407.5 301 407.5 321 447.5"/><path class="cls-2" d="M321,455H191a7.5,7.5,0,0,1-6.71-10.85l20-40A7.51,7.51,0,0,1,211,400h90a7.51,7.51,0,0,1,6.71,4.15l20,40A7.5,7.5,0,0,1,321,455ZM203.14,440H308.86l-12.5-25H215.64Z"/><path class="cls-1" d="M351,407.5H161a20,20,0,0,1,0-40H351a20,20,0,0,1,0,40Z"/><path class="cls-2" d="M351,415H161a27.5,27.5,0,0,1,0-55H351a27.5,27.5,0,0,1,0,55ZM161,375a12.5,12.5,0,0,0,0,25H351a12.5,12.5,0,0,0,0-25Z"/><path class="cls-2" d="M216,512a7.5,7.5,0,0,1-7.5-7.5v-30a7.5,7.5,0,0,1,15,0v30A7.5,7.5,0,0,1,216,512Z"/><path class="cls-2" d="M256,512a7.5,7.5,0,0,1-7.5-7.5v-30a7.5,7.5,0,0,1,15,0v30A7.5,7.5,0,0,1,256,512Z"/><path class="cls-2" d="M296,512a7.5,7.5,0,0,1-7.5-7.5v-30a7.5,7.5,0,0,1,15,0v30A7.5,7.5,0,0,1,296,512Z"/><circle class="cls-1" cx="256" cy="256" r="60"/><path class="cls-2" d="M256,323.5A67.5,67.5,0,1,1,323.5,256,67.58,67.58,0,0,1,256,323.5Zm0-120A52.5,52.5,0,1,0,308.5,256,52.56,52.56,0,0,0,256,203.5Z"/><circle class="cls-3" cx="256" cy="256" r="30"/><path class="cls-2" d="M256,293.5A37.5,37.5,0,1,1,293.5,256,37.54,37.54,0,0,1,256,293.5Zm0-60A22.5,22.5,0,1,0,278.5,256,22.52,22.52,0,0,0,256,233.5Z"/><path class="cls-1" d="M256,81a174.2,174.2,0,0,1,88.59,24.06,79.93,79.93,0,0,0-27.38-46.55L256,7.5l-61.21,51a79.93,79.93,0,0,0-27.38,46.55A174.2,174.2,0,0,1,256,81Z"/><path class="cls-2" d="M167.41,112.56a7.49,7.49,0,0,1-7.37-8.89A87.68,87.68,0,0,1,190,52.75l61.22-51a7.49,7.49,0,0,1,9.6,0l61.22,51A87.68,87.68,0,0,1,352,103.67a7.5,7.5,0,0,1-11.17,7.86,167.6,167.6,0,0,0-169.58,0A7.51,7.51,0,0,1,167.41,112.56ZM256,17.26l-56.41,47A72.57,72.57,0,0,0,180,90.07a182.71,182.71,0,0,1,152.06,0,72.57,72.57,0,0,0-19.62-25.8Z"/></svg>